<?xml version="1.0" encoding="UTF-8" standalone="no"?>
<!-- Created with Inkscape (http://www.inkscape.org/) -->

<svg
   version="1.1"
   id="svg2"
   xml:space="preserve"
   width="49"
   height="19.92"
   viewBox="0 0 48.999998 19.92"
   sodipodi:docname="dhcSim.svg"
   inkscape:export-filename="/home/maxmegaman/git/GitHub/dhcSim/dhcSim/Resources/Images/dhcSimLogo.png"
   inkscape:export-xdpi="1200"
   inkscape:export-ydpi="1200"
   inkscape:version="1.1 (c4e8f9ed74, 2021-05-24)"
   xmlns:inkscape="http://www.inkscape.org/namespaces/inkscape"
   xmlns:sodipodi="http://sodipodi.sourceforge.net/DTD/sodipodi-0.dtd"
   xmlns="http://www.w3.org/2000/svg"
   xmlns:svg="http://www.w3.org/2000/svg"><defs
     id="defs6" /><sodipodi:namedview
     id="namedview4"
     pagecolor="#ffffff"
     bordercolor="#999999"
     borderopacity="1"
     inkscape:pageshadow="0"
     inkscape:pageopacity="1"
     inkscape:pagecheckerboard="0"
     showgrid="true"
     inkscape:zoom="16"
     inkscape:cx="25.375"
     inkscape:cy="19.1875"
     inkscape:window-width="1920"
     inkscape:window-height="1052"
     inkscape:window-x="1920"
     inkscape:window-y="0"
     inkscape:window-maximized="1"
     inkscape:current-layer="g8"
     fit-margin-top="0"
     fit-margin-left="0"
     fit-margin-right="0"
     fit-margin-bottom="0"><inkscape:grid
       type="xygrid"
       id="grid34428"
       originx="-320.99997"
       originy="-228.54" /></sodipodi:namedview><g
     id="g8"
     inkscape:groupmode="layer"
     inkscape:label="print"
     transform="matrix(1.3333333,0,0,-1.3333333,-321.00001,564.79333)"><g
       id="g61049"
       transform="translate(0,-0.03281585)"><text
         xml:space="preserve"
         style="font-style:normal;font-variant:normal;font-weight:normal;font-stretch:normal;font-size:9.99998px;line-height:1.25;font-family:fira;-inkscape-font-specification:fira;stroke-width:0.75"
         x="241.15279"
         y="-412.49783"
         id="text10893"
         transform="scale(1,-1)"><tspan
           sodipodi:role="line"
           id="tspan10891"
           style="font-style:italic;font-variant:normal;font-weight:300;font-stretch:normal;font-family:'Fira Sans';-inkscape-font-specification:'Fira Sans Light Italic';stroke-width:0.75"
           x="241.15279"
           y="-412.49783">dhc</tspan><tspan
           sodipodi:role="line"
           style="font-style:normal;font-variant:normal;font-weight:normal;font-stretch:normal;font-family:'Fira Sans';-inkscape-font-specification:'Fira Sans';stroke-width:0.75"
           x="241.15279"
           y="-399.99786"
           id="tspan11295" /></text><text
         xml:space="preserve"
         style="font-style:normal;font-variant:normal;font-weight:normal;font-stretch:normal;font-size:9.99998px;line-height:1.25;font-family:fira;-inkscape-font-specification:fira;stroke-width:0.75"
         x="265.56656"
         y="-412.38785"
         id="text13251"
         transform="scale(1,-1)"><tspan
           sodipodi:role="line"
           id="tspan13249"
           style="font-style:italic;font-variant:normal;font-weight:300;font-stretch:normal;font-family:'Fira Sans';-inkscape-font-specification:'Fira Sans Light Italic';stroke-width:0.75"
           x="265.56656"
           y="-412.38785">im</tspan></text><g
         id="g61037"
         transform="translate(0,0.59392255)"><g
           aria-label="S"
           transform="matrix(1.6820642,0,0,-1.6820642,-145.71109,-328.60742)"
           id="text57609"
           style="font-weight:200;font-size:9.99998px;line-height:1.25;font-family:'Fira Sans';-inkscape-font-specification:'Fira Sans Ultra-Light';stroke-width:0.75"><path
             d="m 241.90999,-445.93999 0.01,0.41 c -0.44666,0 -0.80666,0.11333 -1.07999,0.34 -0.26667,0.22 -0.4,0.51333 -0.4,0.88 0,0.25333 0.05,0.46333 0.15,0.63 0.10667,0.16667 0.27333,0.31333 0.5,0.44 0.23333,0.12667 0.56,0.25333 0.97999,0.38 0.46,0.14 0.83,0.29 1.11,0.45 0.28,0.16 0.49,0.36667 0.63,0.62 0.14667,0.24666 0.22,0.55999 0.22,0.93999 0,0.38 -0.0933,0.72 -0.28,1.02 -0.18,0.3 -0.43667,0.53333 -0.77,0.7 -0.33333,0.16 -0.71667,0.24 -1.15,0.24 -0.01,-0.42 0,0 -0.01,-0.42 0.51333,0 0.93,-0.13667 1.25,-0.41 0.32,-0.27333 0.48,-0.64667 0.48,-1.12 0,-0.29333 -0.0533,-0.53333 -0.16,-0.71999 -0.10667,-0.19333 -0.28,-0.35667 -0.52,-0.49 -0.23333,-0.14 -0.56333,-0.27667 -0.99,-0.41 -0.69999,-0.21333 -1.19666,-0.45667 -1.48999,-0.73 -0.28667,-0.27333 -0.43,-0.64333 -0.43,-1.11 0,-0.31333 0.08,-0.59333 0.24,-0.84 0.16667,-0.24667 0.39667,-0.44 0.69,-0.58 0.3,-0.14667 0.64,-0.22 1.01999,-0.22 z"
             id="path58730"
             sodipodi:nodetypes="cccscccscsccccssccccsccc" /></g><path
           style="fill:none;stroke:#000000;stroke-width:0.69;stroke-linecap:butt;stroke-linejoin:miter;stroke-miterlimit:4;stroke-dasharray:none;stroke-opacity:1"
           d="m 261.18369,421.14907 h 16.31632"
           id="path60116"
           sodipodi:nodetypes="cc" /><path
           style="fill:none;stroke:#000000;stroke-width:0.69;stroke-linecap:butt;stroke-linejoin:miter;stroke-miterlimit:4;stroke-dasharray:none;stroke-opacity:1"
           d="m 240.75001,409.98929 h 20.33822"
           id="path60358"
           sodipodi:nodetypes="cc" /></g></g><path
       style="fill:none;stroke:#000000;stroke-width:0.69;stroke-linecap:butt;stroke-linejoin:miter;stroke-miterlimit:4;stroke-dasharray:none;stroke-opacity:1"
       d="m 240.75001,409.00001 h 36.75"
       id="path60360"
       sodipodi:nodetypes="cc" /><path
       style="fill:none;stroke:#000000;stroke-width:0.69;stroke-linecap:butt;stroke-linejoin:miter;stroke-miterlimit:4;stroke-dasharray:none;stroke-opacity:1"
       d="m 240.75001,423.25001 h 36.75"
       id="path61031"
       sodipodi:nodetypes="cc" /></g></svg>
